# xmcd
#
# Track frame offsets: 
#        150
#        16515
#        35654
#        53733
#        74469
#        89243
#        111618
#        123467
#        140923
#        154027
#        171250
#        200569
#        212727
#        229979
#        254494
#        270347
#
# Disc length: 3706 seconds
#
# Revision: 5
# Processed by: cddbd v1.5.2PL0 Copyright (c) Steve Scherf et al.
# Submitted via: ExactAudioCopy v0.95b4
#
DISCID=f60e7810
DTITLE=Hound Dog Taylor and the Houserockers - Deluxe Edition
DYEAR=1999
DGENRE=Blues
TTITLE0=Wild About You, Baby
TTITLE1=The Sun Is Shining (live)
TTITLE2=Roll Your Moneymaker
TTITLE3=Give Me Back My Wig (live)
TTITLE4=Walkin the Ceiling
TTITLE5=See Me In the Evening
TTITLE6=Phillips Goes Bananas
TTITLE7=It Hurts Me Too
TTITLE8=What'd I Say?
TTITLE9=Rock Me (live)
TTITLE10=Phillips' Theme (live)
TTITLE11=Take Five
TTITLE12=She's Gone
TTITLE13=Ain't It Lonesome? (live)
TTITLE14=Ain't Got Nobody
TTITLE15=Bonus Track
EXTD=
EXTT0=
EXTT1=
EXTT2=
EXTT3=
EXTT4=
EXTT5=
EXTT6=
EXTT7=
EXTT8=
EXTT9=
EXTT10=
EXTT11=
EXTT12=
EXTT13=
EXTT14=
EXTT15=
PLAYORDER=
